<?xml version="1.0" encoding="utf-8"?>
<!-- Generator: Adobe Illustrator 22.0.1, SVG Export Plug-In . SVG Version: 6.00 Build 0)  -->
<svg version="1.1" id="Слой_1" xmlns="http://www.w3.org/2000/svg" xmlns:xlink="http://www.w3.org/1999/xlink" x="0px" y="0px"
	 viewBox="0 0 26 30" style="enable-background:new 0 0 26 30;" xml:space="preserve">
<style type="text/css">
	.st0{fill:#FFAC5C;}
</style>
<path class="st0" d="M24.8,0.5C24.4,0.2,24,0,23.5,0C19.1,0.2,14.8,1.4,11,3.4c-3.8,2-7.3,4.9-9.9,8.4c-0.3,0.4-0.4,0.9-0.3,1.3
	c0.1,0.5,0.3,0.9,0.7,1.2l2.4,1.6l0,0l1.4,1v1.2c0,0.3,0.3,0.6,0.6,0.6s0.6-0.3,0.6-0.6v-1.5c0-0.2-0.1-0.4-0.3-0.5L5,15.3
	c0.5-0.7,1.1-1.4,1.7-2.1c0.6-0.7,1.3-1.3,1.9-1.9c0.7-0.6,1.3-1.1,2.1-1.6c0.7-0.5,1.5-1,2.3-1.5c0.8-0.4,1.6-0.8,2.5-1.2
	c0.1,0,0.2-0.1,0.3-0.1c0,0.4,0.1,0.9,0.3,1.3c0.3,0.8,1,1.4,1.7,1.7c0.4,0.2,0.8,0.2,1.2,0.2c0.4,0,0.9-0.1,1.3-0.3
	c0.8-0.3,1.4-1,1.7-1.7c0.3-0.8,0.3-1.7,0-2.4c0-0.1-0.1-0.2-0.2-0.3c0.8-0.1,1.6-0.2,2.4-0.2v14.7c-1,0.3-1.7,1.1-2,2.1
	c-0.3,1.1-0.1,2.3,0.7,3.1c0.4,0.4,0.8,0.7,1.3,0.9v2.4l-2.8-1.9c-0.2-0.1-0.4-0.1-0.6,0c-0.2,0.1-0.3,0.3-0.3,0.5v1.4
	c0,0.3-0.2,0.5-0.5,0.5s-0.5-0.2-0.5-0.5v-2.9c0-0.1,0-0.1,0-0.2c0.8-0.9,1.1-2.2,0.6-3.4c-0.7-1.6-2.6-2.4-4.2-1.7
	c-0.7,0.3-1.2,0.8-1.5,1.4L13.4,21c-0.2-0.1-0.4-0.1-0.6,0c-0.2,0.1-0.3,0.3-0.3,0.5v2.3c0,0.3-0.2,0.5-0.5,0.5
	c-0.3,0-0.5-0.2-0.5-0.5v-3.8c0-0.2-0.1-0.4-0.3-0.5l-2.7-1.8c-0.2-0.1-0.4-0.1-0.6,0c-0.2,0.1-0.3,0.3-0.3,0.5v7.8
	c0,0.3-0.2,0.5-0.5,0.5c-0.3,0-0.5-0.2-0.5-0.5v-3.1c0-0.3-0.3-0.6-0.6-0.6s-0.6,0.3-0.6,0.6v3.1c0,0.9,0.8,1.7,1.7,1.7
	s1.7-0.8,1.7-1.7v-6.7l1.5,1v3.5c0,0.9,0.8,1.7,1.7,1.7c0.9,0,1.7-0.8,1.7-1.7v-1.1l0.5,0.3c0,0,0,0,0,0l4,2.7l0.1,0v2.6
	c0,0.9,0.8,1.7,1.7,1.7c0.9,0,1.7-0.8,1.7-1.7V28l2.8,1.9c0.4,0.3,0.9,0,0.9-0.5V1.8C25.3,1.3,25.1,0.8,24.8,0.5z M15.2,22.2
	c0.2-0.5,0.6-0.8,1-1c1-0.4,2.2,0,2.6,1.1c0.3,0.8,0.2,1.6-0.4,2.2L16.3,23L15.2,22.2z M1.9,13c0-0.2,0-0.3,0.1-0.5
	c2.5-3.3,5.8-6.1,9.5-8.1c3.7-1.9,7.8-3.1,12-3.2c0,0,0,0,0,0c0.2,0,0.3,0.1,0.4,0.2c0.1,0.1,0.2,0.3,0.2,0.4V4
	c-0.9,0-1.9,0.1-2.8,0.2c-0.3,0-0.5,0.1-0.8,0.1c-1.4,0.2-2.8,0.6-4.2,1.1c-1,0.3-1.9,0.7-2.8,1.2c-0.9,0.4-1.8,1-2.7,1.5
	C10,8.7,9.2,9.3,8.4,9.9c-0.8,0.7-1.5,1.4-2.2,2.1c-0.7,0.7-1.3,1.5-1.9,2.3c-0.1,0.1-0.1,0.2-0.2,0.3l-1.9-1.3
	C2,13.3,2,13.1,1.9,13z M20.8,7.7c-0.2,0.5-0.6,0.9-1.1,1.1c-0.5,0.2-1,0.2-1.5,0c-0.5-0.2-0.9-0.6-1.1-1.1C17,7.3,16.9,6.9,17,6.4
	c0.9-0.3,1.8-0.5,2.7-0.7c0.2-0.1,0.5-0.1,0.7-0.1c0.2,0.2,0.3,0.4,0.4,0.6C21,6.6,21,7.2,20.8,7.7z M23.3,23.7
	c-0.2-0.5-0.2-1,0-1.5c0.2-0.4,0.5-0.8,0.8-1v3.5C23.8,24.4,23.5,24.1,23.3,23.7z"/>
<path class="st0" d="M18.4,18.7c0.4,0.2,0.8,0.2,1.2,0.2c0.4,0,0.9-0.1,1.3-0.3c1.6-0.7,2.4-2.6,1.7-4.2c-0.3-0.8-1-1.4-1.7-1.7
	c-0.8-0.3-1.7-0.3-2.4,0c-0.8,0.3-1.4,1-1.7,1.7c-0.3,0.8-0.3,1.7,0,2.4C17,17.8,17.7,18.4,18.4,18.7z M17.8,15
	c0.2-0.5,0.6-0.9,1.1-1.1c0.3-0.1,0.5-0.2,0.8-0.2c0.3,0,0.5,0,0.7,0.1c0.5,0.2,0.9,0.6,1.1,1.1c0.4,1,0,2.2-1.1,2.6
	c-0.5,0.2-1,0.2-1.5,0c-0.5-0.2-0.9-0.6-1.1-1.1C17.6,16,17.6,15.5,17.8,15z"/>
<path class="st0" d="M10,17.3c0.4,0.2,0.8,0.2,1.2,0.2c0.4,0,0.9-0.1,1.3-0.3c0.8-0.3,1.4-1,1.7-1.7c0.3-0.8,0.3-1.7,0-2.4
	c-0.3-0.8-1-1.4-1.7-1.7c-0.8-0.3-1.7-0.3-2.4,0c-0.8,0.3-1.4,1-1.7,1.7c-0.3,0.8-0.3,1.7,0,2.4C8.6,16.4,9.2,17,10,17.3z M9.3,13.6
	c0.2-0.5,0.6-0.9,1.1-1.1c0.3-0.1,0.5-0.2,0.8-0.2c0.3,0,0.5,0,0.7,0.1c0.5,0.2,0.9,0.6,1.1,1.1c0.2,0.5,0.2,1,0,1.5
	c-0.2,0.5-0.6,0.9-1.1,1.1c-0.5,0.2-1,0.2-1.5,0c-0.5-0.2-0.9-0.6-1.1-1.1C9.1,14.6,9.1,14.1,9.3,13.6z"/>
</svg>
